# xmcd
#
# Track frame offsets:
#	150
#	16915
#	44555
#	56445
#	79678
#	100545
#	123388
#	142990
#	165633
#	181393
#	197790
#	216233
#
# Disc length: 3200 seconds
#
# Revision: 1
# Processed by: cddbd v1.4PL0 Copyright (c) Steve Scherf et al.
# Submitted via: audiograbber 1.81.02
#
DISCID=9e0c7e0c
DTITLE=Bela Fleck And The Fleck Tones - Bela Fleck And The Flecktones
DYEAR=1900
DGENRE=Psychograss
TTITLE0=Sea Brazil
TTITLE1=Frontiers
TTITLE2=Hurricane Camille
TTITLE3=Half Moon Bay
TTITLE4=The Sinister Minister
TTITLE5=Sunset Road
TTITLE6=Flipper
TTITLE7=Mars Needs Women- Space Is A Lonely Place
TTITLE8=Mars Needs Women- They're Here
TTITLE9=Reflections Of Lucy
TTITLE10=Tell It To The Gov'nor
TTITLE11=Me And My Bass Guitar
EXTD=
EXTT0=
EXTT1=
EXTT2=
EXTT3=
EXTT4=
EXTT5=
EXTT6=
EXTT7=
EXTT8=
EXTT9=
EXTT10=
EXTT11=
PLAYORDER=
